# xmcd
#
# Track frame offsets:
#	150
#	26525
#	45650
#	69275
#	94925
#	113900
#	135575
#	157250
#	181400
#	208175
#	229550
#	244850
#	268400
#	289850
#	311825
#
# Disc length: 4448 seconds
#
# Revision: 1
# Processed by: cddbd v1.5.1PL0 Copyright (c) Steve Scherf et al.
# Submitted via: CDex 1.50Beta5
#
DISCID=e0115e0f
DTITLE=サザンオールスターズ - 2000 BEST
DYEAR=1900
DGENRE=Rock
TTITLE0=ラブ (涙のあとには白い雪が降る)
TTITLE1=マンピーのG*SPOT
TTITLE2=あなただけを 〜Summer Heartbreak〜
TTITLE3=愛の言霊 〜Spiritual Message〜
TTITLE4=太陽は罪な奴
TTITLE5=01MESSENGER 〜電子狂の詩〜
TTITLE6=BLUE HEAVEN
TTITLE7=LOVE AFFAIR 〜秘密のデート〜
TTITLE8=PARADISE
TTITLE9=イエローマン 〜星の王子様〜
TTITLE10=平和の琉歌
TTITLE11=真夜中のダンディー
TTITLE12=月
TTITLE13=祭りのあと
TTITLE14=奇跡の地球
EXTD=
EXTT0=
EXTT1=
EXTT2=
EXTT3=
EXTT4=
EXTT5=
EXTT6=
EXTT7=
EXTT8=
EXTT9=
EXTT10=
EXTT11=
EXTT12=
EXTT13=
EXTT14=
PLAYORDER=
